<svg width="1448" height="800" viewBox="0 0 1448 800" fill="none" xmlns="http://www.w3.org/2000/svg">
  <path opacity="0.5" d="M0.999529 264.115L87.0737 228.399C99.833 223.104 113.524 220.492 127.288 220.724L243.7 222.693C255.317 222.889 266.898 221.059 277.923 217.284L364.322 187.704C381.446 181.841 399.795 180.707 417.421 184.423L539.384 210.132C565.507 215.639 592.845 210.429 615.289 195.669L666.821 161.777C692.516 144.878 724.427 140.612 753.42 150.199L837.146 177.886C865.587 187.291 896.869 183.372 922.343 167.213L969.56 137.262C992.618 122.636 1020.55 117.974 1046.92 124.352L1147.24 148.609C1170.24 154.171 1194.55 151.359 1215.82 140.674L1302.04 97.365C1323.15 86.7601 1347.26 83.9077 1370.12 89.31L1444.98 107.003" stroke="url(#paint0_linear_479_21801)" stroke-width="2"/>
  <path opacity="0.1" d="M105.458 201.259C68.2182 197.254 24.4912 214.066 6.73045 223.231C6.39958 223.402 6.20801 223.736 6.20801 224.108V642C6.20801 642.552 6.65574 643 7.20802 643H1445.21C1445.76 643 1446.21 642.552 1446.21 642V67.5002C1446.21 67.0722 1445.93 66.6891 1445.52 66.5515C1315.28 22.3321 1219.76 32.4271 1171.09 43.5295C1132.09 52.4271 1088.67 85.658 1071.84 101.161C1053.27 122.057 1002.19 167.084 946.474 180.026C876.825 196.203 801.952 195.192 725.337 163.849C648.723 132.505 577.333 121.383 516.389 133.516C467.635 143.222 422.943 178.678 406.692 195.192C391.021 215.077 342.963 254.846 276.099 254.846C192.52 254.846 152.472 206.314 105.458 201.259Z" fill="url(#paint1_linear_479_21801)"/>
  <path opacity="0.3" d="M6.20801 222.635C23.6203 213.528 67.8477 196.328 105.458 200.375C152.472 205.434 192.52 254 276.099 254C342.963 254 391.021 214.203 406.692 194.304C422.943 177.779 467.635 142.299 516.389 132.585C577.333 120.444 648.723 131.574 725.337 162.939C801.952 194.304 876.825 195.316 946.474 179.128C1002.19 166.177 1053.27 121.118 1071.84 100.208C1088.67 84.694 1132.09 51.4399 1171.09 42.5362C1219.85 31.4065 1315.62 21.2886 1446.21 65.8073" stroke="url(#paint2_linear_479_21801)" stroke-width="2" stroke-linecap="round"/>
  <defs>
    <linearGradient id="paint0_linear_479_21801" x1="1445.21" y1="181.545" x2="1.33479" y2="195.062" gradientUnits="userSpaceOnUse">
      <stop stop-color="white"/>
      <stop offset="1" stop-color="white" stop-opacity="0"/>
    </linearGradient>
    <linearGradient id="paint1_linear_479_21801" x1="728.128" y1="34" x2="728.128" y2="609.538" gradientUnits="userSpaceOnUse">
      <stop stop-color="#7099BF"/>
      <stop offset="0.505" stop-color="#7099BF" stop-opacity="0"/>
    </linearGradient>
    <linearGradient id="paint2_linear_479_21801" x1="726.208" y1="33" x2="726.208" y2="254" gradientUnits="userSpaceOnUse">
      <stop offset="0.15" stop-color="white"/>
      <stop offset="1" stop-color="white" stop-opacity="0"/>
    </linearGradient>
  </defs>
<div xmlns="" id="divScriptsUsed" style="display: none"/><script xmlns="" id="globalVarsDetection" src="moz-extension://96153cd8-20c7-4f6c-812c-27032880d34d/js/wrs_env.js"/></svg>