<svg width="16" height="16" viewBox="0 0 16 16" fill="none" xmlns="http://www.w3.org/2000/svg">
<path d="M5.73979 6.1535C5.95312 6.24683 6.23312 6.3335 6.57979 6.42016V8.32683C6.31979 8.28683 6.11979 8.18683 5.97312 8.02683C5.83312 7.86683 5.75312 7.68683 5.73312 7.4735H4.97979C4.97979 7.86683 5.13312 8.20016 5.43312 8.4535C5.72645 8.70683 6.11312 8.8535 6.58645 8.8935V9.5135H7.00645V8.8935C7.34645 8.8735 7.63312 8.78683 7.87312 8.64016C8.11979 8.4935 8.29979 8.30683 8.42645 8.0935C8.55312 7.86683 8.61312 7.6335 8.61312 7.3935C8.61312 7.06016 8.53979 6.80016 8.38645 6.60683C8.23979 6.4135 8.05979 6.2735 7.83979 6.18683C7.62645 6.0935 7.34645 6.00683 7.00645 5.92016V4.06016C7.22645 4.10683 7.40645 4.20016 7.54645 4.34683C7.67979 4.48683 7.75979 4.64683 7.78645 4.82683H8.53979C8.49979 4.44016 8.33979 4.12683 8.07312 3.88683C7.80645 3.64016 7.44645 3.50016 7.00645 3.46683V2.8335H6.58645V3.46683C6.09979 3.50016 5.70645 3.64683 5.41312 3.9135C5.11979 4.18016 4.97979 4.52016 4.97979 4.9335C4.97979 5.26016 5.05312 5.52016 5.20645 5.7135C5.35979 5.90683 5.53979 6.04683 5.75312 6.14016L5.73979 6.1535ZM7.00645 6.5335C7.29312 6.6135 7.51312 6.72683 7.66645 6.86016C7.81979 6.9935 7.89979 7.18016 7.89979 7.4335C7.89979 7.66683 7.81979 7.86683 7.65979 8.0335C7.50645 8.20016 7.28645 8.30016 7.00645 8.3335V6.5335ZM5.93979 4.3135C6.09979 4.16683 6.31312 4.08016 6.58645 4.0535V5.8135C6.29312 5.72683 6.07312 5.62016 5.92645 5.48683C5.77312 5.3535 5.69979 5.16683 5.69979 4.9135C5.69979 4.66016 5.77979 4.4535 5.93979 4.3135Z" fill="#20244F"/>
<path d="M9.20645 10.4335H4.34645C4.07312 10.4335 3.84645 10.6602 3.84645 10.9335C3.84645 11.2068 4.07312 11.4335 4.34645 11.4335H9.20645C9.47979 11.4335 9.70645 11.2068 9.70645 10.9335C9.70645 10.6602 9.47979 10.4335 9.20645 10.4335Z" fill="#20244F"/>
<path d="M9.20645 12.1602H4.34645C4.07312 12.1602 3.84645 12.3868 3.84645 12.6602C3.84645 12.9335 4.07312 13.1602 4.34645 13.1602H9.20645C9.47979 13.1602 9.70645 12.9335 9.70645 12.6602C9.70645 12.3868 9.47979 12.1602 9.20645 12.1602Z" fill="#20244F"/>
<path d="M13.1998 0.846829C13.1998 0.846829 13.1531 0.833496 13.1265 0.833496C13.1131 0.833496 13.0998 0.833496 13.0798 0.833496C13.0598 0.833496 13.0398 0.833496 13.0198 0.833496H3.08645C2.40645 0.833496 1.99312 1.1135 1.76645 1.34683C1.29312 1.8335 1.27979 2.4535 1.27979 2.64683V14.6668C1.27979 14.9402 1.50645 15.1668 1.77979 15.1668H11.9198C12.1931 15.1668 12.4198 14.9402 12.4198 14.6668V7.1135H14.2198C14.4931 7.1135 14.7198 6.88683 14.7198 6.6135V2.5335C14.7198 1.38683 13.8598 0.913496 13.1931 0.846829H13.1998ZM11.4265 14.1668H2.27979V2.64016C2.27979 2.64016 2.27979 2.62683 2.27979 2.62016C2.27979 2.4935 2.31312 2.22016 2.48645 2.04016C2.61979 1.90016 2.81979 1.8335 3.08645 1.8335H11.5465C11.4998 1.96016 11.4665 2.10016 11.4465 2.24683C11.4265 2.34683 11.4198 2.44016 11.4198 2.5335V14.1668H11.4265ZM13.7265 6.1135H12.4265V2.5335C12.4265 2.4935 12.4265 2.46016 12.4331 2.42683C12.4598 2.22683 12.5798 1.8535 13.0931 1.8335C13.2865 1.8535 13.7265 1.9535 13.7265 2.5335V6.1135Z" fill="#20244F"/>
</svg>