 <svg xmlns="http://www.w3.org/2000/svg" fill="none" viewBox="0 0 144 40">
    <path
        fill="#02405E"
        d="M29.879 4.222h8.636v24.493h15.108v7.865H29.879zM54.164 24.18v-.094C54.164 16.976 59.779 11 67.49 11s13.282 5.881 13.282 12.99v.095c0 7.109-5.615 13.084-13.372 13.084s-13.236-5.88-13.236-12.99m18.4 0v-.094c0-3.094-2.187-5.692-5.164-5.692s-5.028 2.55-5.028 5.597v.095c0 3.047 2.142 5.645 5.118 5.645s5.074-2.551 5.074-5.55M82.057 24.18v-.094c0-7.086 5.254-13.038 12.876-13.038 4.938 0 8.23 2.22 10.282 5.55L99.51 21.04c-1.195-1.63-2.503-2.645-4.51-2.645-2.773 0-4.757 2.55-4.757 5.597v.095c0 3.236 1.961 5.692 4.803 5.692 2.051 0 3.337-.968 4.645-2.598l5.659 4.251c-2.232 3.425-5.434 5.74-10.688 5.74-7.306 0-12.605-5.929-12.605-12.99M105.692 29.147l.012-.094c.153-5.218 4.032-7.798 9.702-7.712 2.223.03 4.391.48 5.772 1.05l.01-.426c.09-2.632-1.421-4.122-4.686-4.181-2.539-.044-4.519.504-6.733 1.285l-1.544-6.16c2.758-1.12 5.672-1.865 9.822-1.795s7.236 1.156 9.089 3.163c1.757 1.878 2.445 4.46 2.332 7.969l-.473 14.367-8.346-.123.09-2.631c-1.763 1.859-4.063 3.13-7.238 3.081-4.584-.051-7.989-2.888-7.828-7.82m15.415-1.646.037-1.161c-.881-.392-2.071-.678-3.32-.685-2.45-.033-3.921 1.147-3.984 3.044l-.012.093c-.04 1.71 1.168 2.735 2.912 2.778 2.495.038 4.292-1.555 4.364-4.045M141.001 2.83h-8.434v33.75h8.434z"
    ></path>
    <path
        fill="#B73E18"
        d="M3 23.235v-.095C3 15.607 8.141 9.654 15.425 9.654c8.455 0 12.379 6.519 12.379 14.1 0 .567 0 1.229-.045 1.866H11.276c.676 2.811 2.638 4.252 5.321 4.252 2.097 0 3.676-.803 5.457-2.622l4.78 4.133c-2.367 3.142-5.772 5.244-10.643 5.244C8.457 36.627 3 31.194 3 23.235m16.731-2.244c-.315-2.858-1.961-4.676-4.329-4.676s-3.81 1.818-4.284 4.676z"
    ></path>
</svg>