<svg width="16" height="16" viewBox="0 0 16 16" fill="none" xmlns="http://www.w3.org/2000/svg">
<path d="M14.3335 6.0644C14.2535 5.9044 14.1402 5.7644 14.0002 5.65773L8.71354 1.53773C8.30688 1.2244 7.69354 1.2244 7.28687 1.53773L1.99354 5.65107C1.85354 5.75773 1.74021 5.89773 1.66021 6.05773C1.58688 6.21773 1.54688 6.39773 1.54688 6.57107V13.5311C1.54688 13.6844 1.57354 13.8377 1.63354 13.9777C1.69354 14.1177 1.78021 14.2444 1.88688 14.3577C1.99354 14.4711 2.12021 14.5511 2.26688 14.6111C2.41354 14.6711 2.56021 14.6977 2.71354 14.6977H13.2935C13.4469 14.6977 13.5935 14.6711 13.7402 14.6111C13.8802 14.5511 14.0069 14.4644 14.1135 14.3577C14.2202 14.2511 14.3069 14.1244 14.3669 13.9777C14.4269 13.8377 14.4535 13.6844 14.4535 13.5311V6.57107C14.4535 6.39773 14.4135 6.21773 14.3335 6.05773V6.0644ZM13.4469 13.5311L13.4002 13.6444L13.2869 13.6911H2.70688L2.59354 13.6444L2.54688 13.5311V6.57107C2.54688 6.57107 2.54688 6.5244 2.56021 6.49773C2.57354 6.47773 2.58688 6.45773 2.60688 6.4444L7.90021 2.3244C7.90021 2.3244 7.96688 2.29107 8.00021 2.29107C8.03354 2.29107 8.07354 2.3044 8.10021 2.3244L13.3935 6.4444C13.3935 6.4444 13.4269 6.47773 13.4402 6.5044C13.4535 6.5244 13.4535 6.55107 13.4535 6.57773V13.5377L13.4469 13.5311Z" fill="#20244F"/>
<path d="M8.04694 7.8444C7.71361 7.8444 7.44694 8.11107 7.44694 8.4444V11.6444C7.44694 11.9777 7.71361 12.2444 8.04694 12.2444C8.38027 12.2444 8.64694 11.9777 8.64694 11.6444V8.4444C8.64694 8.11107 8.38027 7.8444 8.04694 7.8444Z" fill="#20244F"/>
</svg>