<svg viewBox="0 0 261 78" fill="none" xmlns="http://www.w3.org/2000/svg">
<g filter="url(#filter0_d_250_9842)">
<path d="M55.3246 7.5998H70.738V51.6862H97.7013V65.8432H55.3246V7.5998Z" fill="white"/>
<path d="M98.6668 43.5241V43.3541C98.6668 30.5576 108.687 19.8017 122.451 19.8017C136.214 19.8017 146.154 30.3875 146.154 43.184V43.3541C146.154 56.1506 136.134 66.9065 122.29 66.9065C108.446 66.9065 98.6668 56.3207 98.6668 43.5241ZM131.506 43.5241V43.3541C131.506 37.7848 127.602 33.1084 122.29 33.1084C116.978 33.1084 113.315 37.6998 113.315 43.184V43.3541C113.315 48.8383 117.139 53.5148 122.451 53.5148C127.763 53.5148 131.506 48.9233 131.506 43.5241Z" fill="white"/>
<path d="M148.449 43.5244V43.3543C148.449 30.6003 157.825 19.8869 171.428 19.8869C180.241 19.8869 186.117 23.8832 189.779 29.8776L179.597 37.8701C177.464 34.9367 175.13 33.1086 171.548 33.1086C166.599 33.1086 163.057 37.7 163.057 43.1843V43.3543C163.057 49.1786 166.558 53.6 171.629 53.6C175.291 53.6 177.585 51.857 179.919 48.9236L190.02 56.576C186.036 62.7404 180.322 66.9067 170.945 66.9067C157.906 66.9067 148.449 56.2359 148.449 43.5244Z" fill="white"/>
<path d="M190.63 52.464L190.652 52.2952C190.924 42.9028 197.847 38.2581 207.966 38.4137C211.934 38.4662 215.804 39.2781 218.268 40.3051L218.285 39.536C218.447 34.8001 215.749 32.1168 209.923 32.0103C205.391 31.9322 201.858 32.9177 197.906 34.3237L195.151 23.2363C200.074 21.2196 205.274 19.8793 212.68 20.0058C220.085 20.1323 225.594 22.0853 228.901 25.6995C232.037 29.0785 233.266 33.726 233.064 40.0422L232.22 65.9026L217.323 65.6821L217.485 60.9461C214.338 64.292 210.233 66.5791 204.566 66.492C196.386 66.4 190.309 61.2934 190.596 52.417M218.108 49.454L218.173 47.3627C216.601 46.658 214.477 46.1435 212.248 46.1303C207.876 46.0716 205.251 48.1954 205.137 51.6091L205.116 51.7778C205.045 54.854 207.201 56.7005 210.314 56.778C214.766 56.8464 217.973 53.9791 218.102 49.4962" fill="white"/>
<path d="M253.646 5.09229H238.595V65.8439H253.646V5.09229Z" fill="white"/>
<path d="M7.354 41.8228V41.6528C7.354 28.091 16.5296 17.3776 29.5283 17.3776C44.6197 17.3776 51.6221 29.1113 51.6221 42.7581C51.6221 43.7785 51.6221 44.9688 51.5416 46.1167H22.1235C23.3308 51.1758 26.832 53.7691 31.621 53.7691C35.3637 53.7691 38.1807 52.3237 41.36 49.0501L49.8916 56.49C45.666 62.1443 39.5892 65.9279 30.8966 65.9279C17.093 65.9279 7.354 56.1499 7.354 41.8228ZM37.2149 37.7841C36.6515 32.64 33.7137 29.3664 29.4881 29.3664C25.2625 29.3664 22.6869 32.64 21.8418 37.7841H37.2149Z" fill="white"/>
</g>
<defs>
<filter id="filter0_d_250_9842" x="-5" y="-3" width="271" height="86" filterUnits="userSpaceOnUse" color-interpolation-filters="sRGB">
<feFlood flood-opacity="0" result="BackgroundImageFix"/>
<feColorMatrix in="SourceAlpha" type="matrix" values="0 0 0 0 0 0 0 0 0 0 0 0 0 0 0 0 0 0 127 0" result="hardAlpha"/>
<feOffset dy="4"/>
<feGaussianBlur stdDeviation="3.5"/>
<feComposite in2="hardAlpha" operator="out"/>
<feColorMatrix type="matrix" values="0 0 0 0 0 0 0 0 0 0 0 0 0 0 0 0 0 0 0.16 0"/>
<feBlend mode="normal" in2="BackgroundImageFix" result="effect1_dropShadow_250_9842"/>
<feBlend mode="normal" in="SourceGraphic" in2="effect1_dropShadow_250_9842" result="shape"/>
</filter>
</defs>
</svg>