<svg width="16" height="16" viewBox="0 0 16 16" fill="none" xmlns="http://www.w3.org/2000/svg">
<path fill-rule="evenodd" clip-rule="evenodd" d="M11.2335 1.8537L4.26683 5.0137H1.3335C1.06016 5.0137 0.833496 5.24036 0.833496 5.5137V10.2004C0.833496 10.4737 1.06016 10.7004 1.3335 10.7004H1.60683V12.9137C1.60683 13.0004 1.60683 13.3004 1.76016 13.587C1.84683 13.747 1.9735 13.9004 2.1735 14.0204C2.36683 14.1337 2.60016 14.1937 2.86016 14.1937C3.12016 14.1937 3.34683 14.127 3.5335 14.0004C3.72016 13.8737 3.8335 13.707 3.90016 13.5537C4.02683 13.2737 4.02683 12.987 4.02683 12.9204V10.707H4.36016L11.2402 13.767C11.3935 13.8337 11.5735 13.8204 11.7135 13.727C11.8535 13.6337 11.9402 13.4737 11.9402 13.307V2.30703C11.9402 2.14036 11.8535 1.98036 11.7135 1.88703C11.5735 1.7937 11.3935 1.78036 11.2335 1.8537ZM1.8335 6.0137H3.92016V9.70036H1.8335V6.0137ZM3.02683 12.9137C3.02683 12.9137 3.02683 12.967 3.02683 13.0137C3.02683 13.0604 3.00683 13.1004 2.9935 13.1337C2.98016 13.167 2.96683 13.1737 2.96683 13.1737C2.96683 13.1737 2.94016 13.1937 2.86683 13.1937C2.7535 13.1937 2.70016 13.167 2.68683 13.1604C2.6735 13.1537 2.66016 13.1404 2.6535 13.1204C2.62016 13.0604 2.62016 12.9804 2.62016 12.9137V10.7004H3.04016V12.9137H3.02683ZM10.9402 12.5337L4.92016 9.8537V5.8137L10.9402 3.08036V12.5337Z" fill="#20244F"/>
<path fill-rule="evenodd" clip-rule="evenodd" d="M13.5069 5.86031L14.7469 4.30697C14.9203 4.09364 14.8869 3.77364 14.6669 3.60697C14.4536 3.43364 14.1336 3.46697 13.9669 3.68697L12.7269 5.24031C12.5536 5.45364 12.5869 5.77364 12.8069 5.94031C13.0203 6.11364 13.3403 6.08031 13.5069 5.86031Z" fill="#20244F"/>
<path fill-rule="evenodd" clip-rule="evenodd" d="M13.5068 9.6735C13.3335 9.46017 13.0201 9.42017 12.8068 9.5935C12.5935 9.76683 12.5535 10.0802 12.7268 10.2935L13.9668 11.8468C14.1401 12.0602 14.4535 12.1002 14.6668 11.9268C14.8801 11.7535 14.9201 11.4402 14.7468 11.2268L13.5068 9.6735Z" fill="#20244F"/>
<path fill-rule="evenodd" clip-rule="evenodd" d="M14.6668 7.26693H12.8068C12.5335 7.26693 12.3068 7.49359 12.3068 7.76693C12.3068 8.04026 12.5335 8.26693 12.8068 8.26693H14.6668C14.9401 8.26693 15.1668 8.04026 15.1668 7.76693C15.1668 7.49359 14.9401 7.26693 14.6668 7.26693Z" fill="#20244F"/>
</svg>