<svg width="1440" height="770" viewBox="0 0 1440 770" fill="none" xmlns="http://www.w3.org/2000/svg">
  <path d="M45.224 576.635H25.7622V770.084H45.224V576.635Z" fill="url(#paint0_linear_250_9809)" />
  <path d="M95.81 609.25H76.3481V770.085H95.81V609.25Z" fill="url(#paint1_linear_250_9809)" />
  <path d="M146.395 549.565H126.933V770.087H146.395V549.565Z" fill="url(#paint2_linear_250_9809)" />
  <path d="M171.697 576.635H152.235V770.084H171.697V576.635Z" fill="url(#paint3_linear_250_9809)" />
  <path d="M222.283 586.672H202.821V770.086H222.283V586.672Z" fill="url(#paint4_linear_250_9809)" />
  <path d="M272.849 448.415H253.387V770.085H272.849V448.415Z" fill="url(#paint5_linear_250_9809)" />
  <path d="M323.434 468.155H303.972V770.086H323.434V468.155Z" fill="url(#paint6_linear_250_9809)" />
  <path d="M374.02 504.848H354.558V770.085H374.02V504.848Z" fill="url(#paint7_linear_250_9809)" />
  <path d="M424.605 540.907H405.143V770.085H424.605V540.907Z" fill="url(#paint8_linear_250_9809)" />
  <path d="M475.19 421.73H455.728V770.087H475.19V421.73Z" fill="url(#paint9_linear_250_9809)" />
  <path d="M525.776 440.087H506.314V770.083H525.776V440.087Z" fill="url(#paint10_linear_250_9809)" />
  <path d="M576 405H557V770H576V405Z" fill="url(#paint11_linear_250_9809)" />
  <path d="M627 358H607V770H627V358Z" fill="url(#paint12_linear_250_9809)" />
  <path d="M677.532 297.147H658.07V770.086H677.532V297.147Z" fill="url(#paint13_linear_250_9809)" />
  <path d="M728.117 416.465H708.655V770.087H728.117V416.465Z" fill="url(#paint14_linear_250_9809)" />
  <path d="M778.703 482.903H759.241V770.085H778.703V482.903Z" fill="url(#paint15_linear_250_9809)" />
  <path d="M829.269 478.163H809.807V770.087H829.269V478.163Z" fill="url(#paint16_linear_250_9809)" />
  <path d="M879.854 264.477H860.392V770.084H879.854V264.477Z" fill="url(#paint17_linear_250_9809)" />
  <path d="M930.439 315.344H910.977V770.088H930.439V315.344Z" fill="url(#paint18_linear_250_9809)" />
  <path d="M981.025 264.477H961.563V770.084H981.025V264.477Z" fill="url(#paint19_linear_250_9809)" />
  <path d="M1031.61 195.887H1012.15V770.086H1031.61V195.887Z" fill="url(#paint20_linear_250_9809)" />
  <path d="M1082.2 280.688H1062.73V770.085H1082.2V280.688Z" fill="url(#paint21_linear_250_9809)" />
  <path d="M1132.78 439.622H1113.32V770.087H1132.78V439.622Z" fill="url(#paint22_linear_250_9809)" />
  <path d="M1183.37 234.428H1163.9V770.086H1183.37V234.428Z" fill="url(#paint23_linear_250_9809)" />
  <path d="M1233.95 257.394H1214.49V770.087H1233.95V257.394Z" fill="url(#paint24_linear_250_9809)" />
  <path d="M1284.54 125.698H1265.08V770.086H1284.54V125.698Z" fill="url(#paint25_linear_250_9809)" />
  <path d="M1335.12 0.315918H1315.66V770.086H1335.12V0.315918Z" fill="url(#paint26_linear_250_9809)" />
  <path d="M1385.69 56.5283H1366.23V770.086H1385.69V56.5283Z" fill="url(#paint27_linear_250_9809)" />
  <path d="M1436.27 86.7974H1416.81V770.085H1436.27V86.7974Z" fill="url(#paint28_linear_250_9809)" />
  <defs>
    <linearGradient id="paint0_linear_250_9809" x1="35.4931" y1="576.635" x2="35.4931" y2="770.084" gradientUnits="userSpaceOnUse">
      <stop stop-color="white" />
      <stop offset="1" stop-color="white" stop-opacity="0" />
    </linearGradient>
    <linearGradient id="paint1_linear_250_9809" x1="86.0791" y1="609.25" x2="86.0791" y2="770.085" gradientUnits="userSpaceOnUse">
      <stop stop-color="white" />
      <stop offset="1" stop-color="white" stop-opacity="0" />
    </linearGradient>
    <linearGradient id="paint2_linear_250_9809" x1="136.664" y1="549.565" x2="136.664" y2="770.087" gradientUnits="userSpaceOnUse">
      <stop stop-color="white" />
      <stop offset="1" stop-color="white" stop-opacity="0" />
    </linearGradient>
    <linearGradient id="paint3_linear_250_9809" x1="161.966" y1="576.635" x2="161.966" y2="770.084" gradientUnits="userSpaceOnUse">
      <stop stop-color="white" />
      <stop offset="1" stop-color="white" stop-opacity="0" />
    </linearGradient>
    <linearGradient id="paint4_linear_250_9809" x1="212.552" y1="586.672" x2="212.552" y2="770.086" gradientUnits="userSpaceOnUse">
      <stop stop-color="white" />
      <stop offset="1" stop-color="white" stop-opacity="0" />
    </linearGradient>
    <linearGradient id="paint5_linear_250_9809" x1="263.118" y1="448.415" x2="263.118" y2="770.085" gradientUnits="userSpaceOnUse">
      <stop stop-color="white" />
      <stop offset="1" stop-color="white" stop-opacity="0" />
    </linearGradient>
    <linearGradient id="paint6_linear_250_9809" x1="313.703" y1="468.155" x2="313.703" y2="770.086" gradientUnits="userSpaceOnUse">
      <stop stop-color="white" />
      <stop offset="1" stop-color="white" stop-opacity="0" />
    </linearGradient>
    <linearGradient id="paint7_linear_250_9809" x1="364.289" y1="504.848" x2="364.289" y2="770.085" gradientUnits="userSpaceOnUse">
      <stop stop-color="white" />
      <stop offset="1" stop-color="white" stop-opacity="0" />
    </linearGradient>
    <linearGradient id="paint8_linear_250_9809" x1="414.874" y1="540.907" x2="414.874" y2="770.085" gradientUnits="userSpaceOnUse">
      <stop stop-color="white" />
      <stop offset="1" stop-color="white" stop-opacity="0" />
    </linearGradient>
    <linearGradient id="paint9_linear_250_9809" x1="465.459" y1="421.73" x2="465.459" y2="770.087" gradientUnits="userSpaceOnUse">
      <stop stop-color="white" />
      <stop offset="1" stop-color="white" stop-opacity="0" />
    </linearGradient>
    <linearGradient id="paint10_linear_250_9809" x1="516.045" y1="440.087" x2="516.045" y2="770.083" gradientUnits="userSpaceOnUse">
      <stop stop-color="white" />
      <stop offset="1" stop-color="white" stop-opacity="0" />
    </linearGradient>
    <linearGradient id="paint11_linear_250_9809" x1="566.5" y1="405" x2="566.5" y2="770" gradientUnits="userSpaceOnUse">
      <stop stop-color="white" />
      <stop offset="1" stop-color="white" stop-opacity="0" />
    </linearGradient>
    <linearGradient id="paint12_linear_250_9809" x1="617" y1="358" x2="617" y2="770" gradientUnits="userSpaceOnUse">
      <stop stop-color="white" />
      <stop offset="1" stop-color="white" stop-opacity="0" />
    </linearGradient>
    <linearGradient id="paint13_linear_250_9809" x1="667.801" y1="297.147" x2="667.801" y2="770.086" gradientUnits="userSpaceOnUse">
      <stop stop-color="white" />
      <stop offset="1" stop-color="white" stop-opacity="0" />
    </linearGradient>
    <linearGradient id="paint14_linear_250_9809" x1="718.386" y1="416.465" x2="718.386" y2="770.087" gradientUnits="userSpaceOnUse">
      <stop stop-color="white" />
      <stop offset="1" stop-color="white" stop-opacity="0" />
    </linearGradient>
    <linearGradient id="paint15_linear_250_9809" x1="768.972" y1="482.903" x2="768.972" y2="770.085" gradientUnits="userSpaceOnUse">
      <stop stop-color="white" />
      <stop offset="1" stop-color="white" stop-opacity="0" />
    </linearGradient>
    <linearGradient id="paint16_linear_250_9809" x1="819.538" y1="478.163" x2="819.538" y2="770.087" gradientUnits="userSpaceOnUse">
      <stop stop-color="white" />
      <stop offset="1" stop-color="white" stop-opacity="0" />
    </linearGradient>
    <linearGradient id="paint17_linear_250_9809" x1="870.123" y1="264.477" x2="870.123" y2="770.084" gradientUnits="userSpaceOnUse">
      <stop stop-color="white" />
      <stop offset="1" stop-color="white" stop-opacity="0" />
    </linearGradient>
    <linearGradient id="paint18_linear_250_9809" x1="920.708" y1="315.344" x2="920.708" y2="770.088" gradientUnits="userSpaceOnUse">
      <stop stop-color="white" />
      <stop offset="1" stop-color="white" stop-opacity="0" />
    </linearGradient>
    <linearGradient id="paint19_linear_250_9809" x1="971.294" y1="264.477" x2="971.294" y2="770.084" gradientUnits="userSpaceOnUse">
      <stop stop-color="white" />
      <stop offset="1" stop-color="white" stop-opacity="0" />
    </linearGradient>
    <linearGradient id="paint20_linear_250_9809" x1="1021.88" y1="195.887" x2="1021.88" y2="770.086" gradientUnits="userSpaceOnUse">
      <stop stop-color="white" />
      <stop offset="1" stop-color="white" stop-opacity="0" />
    </linearGradient>
    <linearGradient id="paint21_linear_250_9809" x1="1072.46" y1="280.687" x2="1072.46" y2="770.085" gradientUnits="userSpaceOnUse">
      <stop stop-color="white" />
      <stop offset="1" stop-color="white" stop-opacity="0" />
    </linearGradient>
    <linearGradient id="paint22_linear_250_9809" x1="1123.05" y1="439.622" x2="1123.05" y2="770.087" gradientUnits="userSpaceOnUse">
      <stop stop-color="white" />
      <stop offset="1" stop-color="white" stop-opacity="0" />
    </linearGradient>
    <linearGradient id="paint23_linear_250_9809" x1="1173.63" y1="234.428" x2="1173.63" y2="770.086" gradientUnits="userSpaceOnUse">
      <stop stop-color="white" />
      <stop offset="1" stop-color="white" stop-opacity="0" />
    </linearGradient>
    <linearGradient id="paint24_linear_250_9809" x1="1224.22" y1="257.394" x2="1224.22" y2="770.087" gradientUnits="userSpaceOnUse">
      <stop stop-color="white" />
      <stop offset="1" stop-color="white" stop-opacity="0" />
    </linearGradient>
    <linearGradient id="paint25_linear_250_9809" x1="1274.81" y1="125.698" x2="1274.81" y2="770.086" gradientUnits="userSpaceOnUse">
      <stop stop-color="white" />
      <stop offset="1" stop-color="white" stop-opacity="0" />
    </linearGradient>
    <linearGradient id="paint26_linear_250_9809" x1="1325.39" y1="0.315918" x2="1325.39" y2="770.086" gradientUnits="userSpaceOnUse">
      <stop stop-color="white" />
      <stop offset="1" stop-color="white" stop-opacity="0" />
    </linearGradient>
    <linearGradient id="paint27_linear_250_9809" x1="1375.96" y1="56.5283" x2="1375.96" y2="770.086" gradientUnits="userSpaceOnUse">
      <stop stop-color="white" />
      <stop offset="1" stop-color="white" stop-opacity="0" />
    </linearGradient>
    <linearGradient id="paint28_linear_250_9809" x1="1426.54" y1="86.7974" x2="1426.54" y2="770.085" gradientUnits="userSpaceOnUse">
      <stop stop-color="white" />
      <stop offset="1" stop-color="white" stop-opacity="0" />
    </linearGradient>
  </defs>
</svg>